# xmcd CD database file
#
# Track frame offsets:
#	150
#	11747
#	31086
#	49194
#	60211
#	77169
#	95183
#	109181
#	130000
#	150817
#	176562
#	197744
#
# Disc length: 2899 seconds
#
# Revision: 0
# Processed by: cddbd v1.5.2PL0 Copyright (c) Steve Scherf et al.
# Submitted via: CDex 1.70beta3
#
DISCID=8d0b510c
DTITLE=Jane Monheit - Home
DYEAR=1900
DGENRE=Jazz
TTITLE0=Shine On Your Shoes
TTITLE1=There's A Small Hotel
TTITLE2=This Is Always
TTITLE3=Tonight You Belong To Me
TTITLE4=Look For The Silver Lining
TTITLE5=I'll Be Around
TTITLE6=Everything I've Got Belongs To You
TTITLE7=It's Only Smoke
TTITLE8=The Eagle And Me
TTITLE9=I Didn't Know About You/All Too Soon
TTITLE10=Isnt't This A Lovely Day
TTITLE11=While We're Young
EXTD=
EXTT0=
EXTT1=
EXTT2=
EXTT3=
EXTT4=
EXTT5=
EXTT6=
EXTT7=
EXTT8=
EXTT9=
EXTT10=
EXTT11=
PLAYORDER=
